<svg width="188" height="32" viewBox="0 0 188 32" fill="none" xmlns="http://www.w3.org/2000/svg">
<path d="M53.824 13.08C53.824 13.816 53.72 14.44 53.512 14.952C53.304 15.464 52.904 15.888 52.312 16.224C51.72 16.544 50.888 16.776 49.816 16.92C48.76 17.064 47.384 17.136 45.688 17.136C43.992 17.136 42.608 17.064 41.536 16.92C40.48 16.776 39.656 16.544 39.064 16.224C38.472 15.888 38.072 15.464 37.864 14.952C37.656 14.44 37.552 13.816 37.552 13.08C37.552 12.312 37.592 11.52 37.672 10.704C37.768 9.888 37.896 9.144 38.056 8.472C38.232 7.672 38.528 7.104 38.944 6.768C39.376 6.432 40.024 6.264 40.888 6.264H50.944C52.864 6.264 53.824 7.224 53.824 9.144V13.08ZM41.488 10.08C41.424 10.512 41.376 10.952 41.344 11.4C41.328 11.848 41.32 12.28 41.32 12.696C41.32 12.968 41.368 13.2 41.464 13.392C41.56 13.584 41.76 13.744 42.064 13.872C42.368 13.984 42.808 14.072 43.384 14.136C43.96 14.184 44.728 14.208 45.688 14.208C46.648 14.208 47.416 14.184 47.992 14.136C48.568 14.072 49.008 13.984 49.312 13.872C49.616 13.744 49.816 13.584 49.912 13.392C50.008 13.2 50.056 12.96 50.056 12.672V10.08C50.056 9.744 49.984 9.504 49.84 9.36C49.696 9.216 49.456 9.144 49.12 9.144H42.4C42.128 9.144 41.92 9.216 41.776 9.36C41.632 9.488 41.536 9.728 41.488 10.08ZM47.584 21.072H55.264C55.664 21.072 55.984 21.2 56.224 21.456C56.48 21.712 56.608 22.072 56.608 22.536C56.608 23 56.48 23.36 56.224 23.616C55.984 23.872 55.664 24 55.264 24H36.256C35.856 24 35.528 23.872 35.272 23.616C35.032 23.36 34.912 23 34.912 22.536C34.912 22.072 35.032 21.712 35.272 21.456C35.528 21.2 35.856 21.072 36.256 21.072H43.936V19.008C43.936 18.624 44.096 18.32 44.416 18.096C44.752 17.856 45.2 17.736 45.76 17.736C46.32 17.736 46.76 17.856 47.08 18.096C47.416 18.32 47.584 18.624 47.584 19.008V21.072ZM61.3953 11.472C61.3953 10.608 61.5713 9.76 61.9233 8.928C61.5873 8.864 61.3233 8.704 61.1313 8.448C60.9553 8.176 60.8673 7.864 60.8673 7.512C60.8673 7.128 60.9793 6.784 61.2033 6.48C61.4273 6.176 61.7473 6.024 62.1633 6.024H75.2193C75.6353 6.024 75.9553 6.176 76.1793 6.48C76.4033 6.784 76.5153 7.128 76.5153 7.512C76.5153 7.896 76.4033 8.232 76.1793 8.52C75.9553 8.808 75.6353 8.952 75.2193 8.952H65.3313C65.1393 9.704 65.0433 10.448 65.0433 11.184C65.0433 11.536 65.1153 11.832 65.2593 12.072C65.4033 12.296 65.6353 12.48 65.9553 12.624C66.2913 12.752 66.7233 12.848 67.2513 12.912C67.7793 12.96 68.4353 12.984 69.2193 12.984C70.3393 12.984 71.3953 12.92 72.3873 12.792C73.3953 12.664 74.2913 12.504 75.0753 12.312C75.5393 12.184 75.9233 12.216 76.2273 12.408C76.5313 12.584 76.7313 12.888 76.8273 13.32C77.0193 14.232 76.6833 14.816 75.8193 15.072C74.9873 15.312 73.9873 15.512 72.8193 15.672C71.6673 15.832 70.4673 15.912 69.2193 15.912C67.8273 15.912 66.6353 15.832 65.6433 15.672C64.6513 15.512 63.8353 15.264 63.1953 14.928C62.5713 14.576 62.1153 14.12 61.8273 13.56C61.5393 12.984 61.3953 12.288 61.3953 11.472ZM59.7873 20.592C59.3713 20.592 59.0433 20.472 58.8033 20.232C58.5633 19.976 58.4433 19.616 58.4433 19.152C58.4433 18.688 58.5633 18.336 58.8033 18.096C59.0433 17.84 59.3713 17.712 59.7873 17.712H78.7953C79.2113 17.712 79.5393 17.84 79.7793 18.096C80.0193 18.336 80.1393 18.688 80.1393 19.152C80.1393 19.616 80.0193 19.976 79.7793 20.232C79.5393 20.472 79.2113 20.592 78.7953 20.592H71.0912V26.016C71.0912 26.432 70.9313 26.76 70.6113 27C70.2913 27.256 69.8513 27.384 69.2913 27.384C68.7313 27.384 68.2913 27.256 67.9713 27C67.6513 26.76 67.4913 26.432 67.4913 26.016V20.592H59.7873ZM83.3425 11.784C83.3425 10.904 83.4945 10.096 83.7985 9.36C84.1025 8.624 84.5345 8 85.0945 7.488C85.6705 6.976 86.3505 6.576 87.1345 6.288C87.9345 6 88.8225 5.856 89.7985 5.856C90.7745 5.856 91.6545 6 92.4385 6.288C93.2385 6.576 93.9185 6.976 94.4785 7.488C95.0385 8 95.4705 8.624 95.7745 9.36C96.0945 10.096 96.2545 10.904 96.2545 11.784C96.2545 12.68 96.0945 13.496 95.7745 14.232C95.4705 14.952 95.0385 15.568 94.4785 16.08C93.9185 16.592 93.2385 16.992 92.4385 17.28C91.6545 17.568 90.7745 17.712 89.7985 17.712C88.8225 17.712 87.9345 17.568 87.1345 17.28C86.3505 16.992 85.6705 16.592 85.0945 16.08C84.5345 15.568 84.1025 14.952 83.7985 14.232C83.4945 13.496 83.3425 12.68 83.3425 11.784ZM86.9425 11.784C86.9425 12.728 87.1985 13.464 87.7105 13.992C88.2385 14.52 88.9345 14.784 89.7985 14.784C90.6625 14.784 91.3505 14.52 91.8625 13.992C92.3905 13.464 92.6545 12.728 92.6545 11.784C92.6545 10.84 92.3905 10.104 91.8625 9.576C91.3505 9.048 90.6625 8.784 89.7985 8.784C88.9345 8.784 88.2385 9.048 87.7105 9.576C87.1985 10.104 86.9425 10.84 86.9425 11.784ZM96.1825 19.704C96.5985 19.592 96.9505 19.632 97.2385 19.824C97.5425 20.016 97.7345 20.296 97.8145 20.664C97.8945 21.048 97.8625 21.4 97.7185 21.72C97.5745 22.024 97.2705 22.256 96.8065 22.416C96.1665 22.64 95.4225 22.808 94.5745 22.92C93.7425 23.016 92.8465 23.064 91.8865 23.064H83.3185C82.9025 23.064 82.5825 22.928 82.3585 22.656C82.1345 22.384 82.0225 22.04 82.0225 21.624C82.0225 21.208 82.1345 20.856 82.3585 20.568C82.5825 20.28 82.9025 20.136 83.3185 20.136H92.2225C92.9265 20.136 93.6305 20.096 94.3345 20.016C95.0545 19.936 95.6705 19.832 96.1825 19.704ZM98.6305 6.744C98.6305 6.344 98.7905 6.032 99.1105 5.808C99.4305 5.568 99.8625 5.448 100.407 5.448C100.951 5.448 101.383 5.568 101.703 5.808C102.023 6.032 102.183 6.344 102.183 6.744V24.072C102.183 24.472 102.023 24.784 101.703 25.008C101.383 25.248 100.951 25.368 100.407 25.368C99.8625 25.368 99.4305 25.248 99.1105 25.008C98.7905 24.784 98.6305 24.472 98.6305 24.072V6.744ZM122.193 9.12V22.728C122.193 23.208 122.041 23.584 121.737 23.856C121.433 24.112 120.985 24.24 120.393 24.24C119.801 24.24 119.353 24.112 119.049 23.856C118.745 23.584 118.593 23.208 118.593 22.728V9.12H114.249C113.833 9.12 113.497 8.992 113.241 8.736C113.001 8.48 112.881 8.128 112.881 7.68C112.881 7.248 113.001 6.904 113.241 6.648C113.497 6.376 113.833 6.24 114.249 6.24H126.585C127.001 6.24 127.329 6.376 127.569 6.648C127.825 6.904 127.953 7.248 127.953 7.68C127.953 8.128 127.825 8.48 127.569 8.736C127.329 8.992 127.001 9.12 126.585 9.12H122.193ZM138.335 24.36C136.959 24.36 135.687 24.144 134.519 23.712C133.367 23.28 132.375 22.664 131.543 21.864C130.711 21.064 130.063 20.096 129.599 18.96C129.135 17.824 128.903 16.544 128.903 15.12C128.903 13.696 129.135 12.416 129.599 11.28C130.063 10.144 130.711 9.176 131.543 8.376C132.375 7.576 133.367 6.96 134.519 6.528C135.687 6.096 136.959 5.88 138.335 5.88C139.711 5.88 140.975 6.096 142.127 6.528C143.295 6.96 144.295 7.576 145.127 8.376C145.959 9.176 146.607 10.144 147.071 11.28C147.535 12.416 147.767 13.696 147.767 15.12C147.767 16.544 147.535 17.824 147.071 18.96C146.607 20.096 145.959 21.064 145.127 21.864C144.295 22.664 143.295 23.28 142.127 23.712C140.975 24.144 139.711 24.36 138.335 24.36ZM138.335 21.432C139.151 21.432 139.911 21.288 140.615 21C141.335 20.696 141.959 20.272 142.487 19.728C143.015 19.168 143.423 18.504 143.711 17.736C144.015 16.952 144.167 16.08 144.167 15.12C144.167 14.16 144.015 13.296 143.711 12.528C143.423 11.744 143.015 11.08 142.487 10.536C141.959 9.976 141.335 9.552 140.615 9.264C139.911 8.96 139.151 8.808 138.335 8.808C137.519 8.808 136.751 8.96 136.031 9.264C135.327 9.552 134.711 9.976 134.183 10.536C133.655 11.08 133.239 11.744 132.935 12.528C132.647 13.296 132.503 14.16 132.503 15.12C132.503 16.08 132.647 16.952 132.935 17.736C133.239 18.504 133.655 19.168 134.183 19.728C134.711 20.272 135.327 20.696 136.031 21C136.751 21.288 137.519 21.432 138.335 21.432ZM157.553 24.36C156.321 24.36 155.273 24.288 154.409 24.144C153.545 24.016 152.841 23.808 152.297 23.52C151.769 23.216 151.385 22.824 151.145 22.344C150.905 21.864 150.785 21.28 150.785 20.592V8.28C150.785 6.92 151.465 6.24 152.825 6.24H157.553C158.865 6.24 160.017 6.464 161.009 6.912C162.017 7.36 162.865 7.984 163.553 8.784C164.241 9.584 164.761 10.544 165.113 11.664C165.465 12.768 165.641 13.976 165.641 15.288C165.641 16.616 165.481 17.832 165.161 18.936C164.841 20.04 164.353 21 163.697 21.816C163.041 22.616 162.201 23.24 161.177 23.688C160.169 24.136 158.961 24.36 157.553 24.36ZM154.385 19.968C154.385 20.256 154.433 20.496 154.529 20.688C154.625 20.88 154.785 21.032 155.009 21.144C155.233 21.256 155.529 21.336 155.897 21.384C156.281 21.432 156.753 21.456 157.313 21.456C158.769 21.456 159.921 20.952 160.769 19.944C161.617 18.936 162.041 17.384 162.041 15.288C162.041 13.192 161.617 11.64 160.769 10.632C159.921 9.624 158.769 9.12 157.313 9.12H154.385V19.968ZM177.124 24.36C175.748 24.36 174.476 24.144 173.308 23.712C172.156 23.28 171.164 22.664 170.332 21.864C169.5 21.064 168.852 20.096 168.388 18.96C167.924 17.824 167.692 16.544 167.692 15.12C167.692 13.696 167.924 12.416 168.388 11.28C168.852 10.144 169.5 9.176 170.332 8.376C171.164 7.576 172.156 6.96 173.308 6.528C174.476 6.096 175.748 5.88 177.124 5.88C178.5 5.88 179.764 6.096 180.916 6.528C182.084 6.96 183.084 7.576 183.916 8.376C184.748 9.176 185.396 10.144 185.86 11.28C186.324 12.416 186.556 13.696 186.556 15.12C186.556 16.544 186.324 17.824 185.86 18.96C185.396 20.096 184.748 21.064 183.916 21.864C183.084 22.664 182.084 23.28 180.916 23.712C179.764 24.144 178.5 24.36 177.124 24.36ZM177.124 21.432C177.94 21.432 178.7 21.288 179.404 21C180.124 20.696 180.748 20.272 181.276 19.728C181.804 19.168 182.212 18.504 182.5 17.736C182.804 16.952 182.956 16.08 182.956 15.12C182.956 14.16 182.804 13.296 182.5 12.528C182.212 11.744 181.804 11.08 181.276 10.536C180.748 9.976 180.124 9.552 179.404 9.264C178.7 8.96 177.94 8.808 177.124 8.808C176.308 8.808 175.54 8.96 174.82 9.264C174.116 9.552 173.5 9.976 172.972 10.536C172.444 11.08 172.028 11.744 171.724 12.528C171.436 13.296 171.292 14.16 171.292 15.12C171.292 16.08 171.436 16.952 171.724 17.736C172.028 18.504 172.444 19.168 172.972 19.728C173.5 20.272 174.116 20.696 174.82 21C175.54 21.288 176.308 21.432 177.124 21.432Z" fill="#00D4B7"/>
<g clip-path="url(#clip0_1_79)">
<path fill-rule="evenodd" clip-rule="evenodd" d="M22.546 9.11101C22.8272 9.3923 22.9852 9.77376 22.9852 10.1715C22.9852 10.5693 22.8272 10.9507 22.546 11.232L11.303 22.475C11.1544 22.6236 10.978 22.7415 10.7839 22.8219C10.5898 22.9024 10.3817 22.9438 10.1715 22.9438C9.96138 22.9438 9.75329 22.9024 9.55915 22.8219C9.365 22.7415 9.1886 22.6236 9.04003 22.475L3.45403 16.89C3.31076 16.7516 3.19649 16.5861 3.11787 16.4031C3.03926 16.2201 2.99788 16.0233 2.99615 15.8241C2.99442 15.6249 3.03237 15.4274 3.10779 15.2431C3.18322 15.0587 3.29459 14.8913 3.43543 14.7504C3.57627 14.6096 3.74375 14.4982 3.92809 14.4228C4.11244 14.3474 4.30996 14.3094 4.50913 14.3111C4.7083 14.3129 4.90513 14.3542 5.08813 14.4329C5.27114 14.5115 5.43666 14.6257 5.57503 14.769L10.171 19.365L20.424 9.11101C20.5633 8.97162 20.7287 8.86104 20.9108 8.7856C21.0928 8.71016 21.288 8.67133 21.485 8.67133C21.6821 8.67133 21.8772 8.71016 22.0593 8.7856C22.2413 8.86104 22.4067 8.97162 22.546 9.11101Z" fill="black"/>
</g>
<rect x="1" y="10" width="18" height="18" rx="4" fill="#FFFBD1" stroke="#00D4B7" stroke-width="2"/>
<rect x="7" y="10" width="18" height="18" rx="4" fill="#FFFBD1" stroke="#00D4B7" stroke-width="2"/>
<rect x="7" y="4" width="18" height="18" rx="4" fill="#FFFBD1" stroke="#00D4B7" stroke-width="2"/>
<rect x="1" y="4" width="18" height="13" rx="4" fill="#FFFBD1" stroke="#00D4B7" stroke-width="2"/>
<rect x="5" y="8" width="16" height="16" rx="4" fill="#FFFBD1" stroke="#00D4B7" stroke-width="2"/>
<path d="M18.78 12.22C18.9205 12.3606 18.9994 12.5513 18.9994 12.75C18.9994 12.9488 18.9205 13.1394 18.78 13.28L11.53 20.53C11.3894 20.6705 11.1988 20.7494 11 20.7494C10.8013 20.7494 10.6107 20.6705 10.47 20.53L7.22003 17.28C7.08739 17.1379 7.01513 16.9498 7.01848 16.7554C7.02184 16.561 7.10056 16.3755 7.23803 16.238C7.37551 16.1005 7.561 16.0218 7.75539 16.0185C7.94978 16.0151 8.13788 16.0874 8.28003 16.22L11 18.94L17.72 12.22C17.8607 12.0796 18.0513 12.0007 18.25 12.0007C18.4488 12.0007 18.6394 12.0796 18.78 12.22Z" fill="#00D4B7"/>
<defs>
<clipPath id="clip0_1_79">
<rect width="24" height="24" fill="white" transform="translate(1 4)"/>
</clipPath>
</defs>
</svg>
